<svg width="140" height="158" viewBox="0 0 140 158" fill="none" xmlns="http://www.w3.org/2000/svg">
<g clip-path="url(#clip0)">
<path d="M0.288086 97.3973C0.288086 97.3973 5.62704 159.106 70.001 157.303C70.001 157.303 126.692 166.426 139.537 97.3973H2.47722" fill="#FFC702"/>
<path d="M20.2565 0.201355H120.419C120.419 0.201355 135.95 1.55318 139.999 19.1352V94.6521C139.999 94.6521 133.926 148.183 75.2886 148.183C22.9591 148.183 4.38868 137.125 -0.000638725 94.8761V20.3737C-0.000638725 20.3737 -0.337431 3.01835 20.2565 0.201355Z" fill="#FFE738"/>
<path d="M30.0134 14.712H110.528C110.528 14.712 123.015 15.8012 126.264 29.9332V90.6298C126.264 90.6298 121.386 133.662 74.2517 133.662C32.1805 133.662 17.2568 124.785 13.7288 90.8123V30.9284C13.7288 30.9284 13.4582 16.9706 30.0134 14.712Z" fill="#FFC702"/>
<path d="M13.7285 83.2598L82.7181 14.701H110.528C110.528 14.701 124.582 15.8068 126.264 29.9221V65.3488L57.837 133.078C57.837 133.078 17.3311 137.471 13.7285 90.8123V83.2598Z" fill="#FCD23E"/>
<path d="M44.4291 94.2789C44.4291 94.2789 62.7069 101.414 63.328 96.767C63.9492 92.1199 85.3243 80.9431 85.3243 80.9431L77.269 61.3956L44.7355 59.8447L40.3987 71.6352L39.1592 84.9765L44.4291 94.2789Z" fill="#FF83FF"/>
<path d="M59.4414 98.3123C59.4414 98.3123 90.7491 97.3503 93.3965 93.7205C96.0439 90.0908 97.2613 81.7145 97.2613 81.7145L79.5936 77.6811L59.4552 84.1969L59.4414 98.3123Z" fill="#FF83FF"/>
<path d="M97.1009 66.6647L92.4549 75.6603L92.6067 84.1638L67.974 75.3507C67.974 75.3507 55.579 44.9415 80.9874 64.7987L97.1009 66.6647Z" fill="white"/>
<path d="M65.2305 66.0427L65.8047 98.0303C65.8047 98.0303 90.3738 98.9758 92.4967 93.6791C92.4967 93.6791 84.3447 83.821 86.0756 82.0683C87.8065 80.3156 65.2305 66.0427 65.2305 66.0427Z" fill="white"/>
<path d="M92.1426 93.6597C92.1426 93.6597 117.242 95.5202 117.242 83.1077C117.242 70.6953 120.957 64.4918 120.957 64.4918C120.957 64.4918 107.944 68.8348 108.874 79.0744C108.874 79.0744 96.0571 67.4775 92.5511 81.0316" fill="#FF83FF"/>
<path d="M92.1426 93.6597C92.1426 93.6597 117.242 95.5202 117.242 83.1077C117.242 70.6953 120.957 64.4918 120.957 64.4918C120.957 64.4918 107.944 68.8348 108.874 79.0744C108.874 79.0744 96.0571 67.4775 92.5511 81.0316" stroke="#B115BA" stroke-width="6" stroke-miterlimit="10"/>
<path d="M108.721 81.7117C108.721 81.7117 105.314 85.123 103.456 85.4354C101.598 85.7478 94.4705 87.6083 93.3828 86.5191" fill="#FF83FF"/>
<path d="M108.72 81.7117C107.806 82.7875 106.777 83.7591 105.65 84.6089C105.078 85.0648 104.43 85.4175 103.737 85.6511C103.646 85.6759 103.547 85.7064 103.461 85.7229L103.21 85.7699L102.699 85.8777L101.678 86.1017C100.297 86.3781 98.9309 86.6546 97.5368 86.8343C96.8365 86.9274 96.1314 86.979 95.425 86.9891C95.0695 86.9923 94.7143 86.9692 94.3622 86.9199C94.0028 86.8969 93.6607 86.7571 93.3877 86.5219C93.6872 86.6976 94.0324 86.7795 94.3787 86.7568C94.7238 86.7595 95.0686 86.7401 95.4112 86.6988C96.0986 86.6242 96.7915 86.5053 97.4651 86.3781C98.8288 86.1155 100.193 85.8252 101.556 85.5211L102.586 85.311L103.105 85.2087L103.367 85.1618C103.458 85.1479 103.522 85.1258 103.599 85.1092C104.238 84.9082 104.844 84.6109 105.393 84.2274C106.546 83.4484 107.656 82.6087 108.72 81.7117Z" fill="#B115BA"/>
<path d="M98.8065 64.6466C98.8065 64.6466 91.9878 72.7133 100.976 82.6433C100.976 82.6433 99.7368 88.8468 83.3086 80.78" fill="white"/>
<path d="M98.8073 64.6466C96.9263 67.3592 96.1748 70.699 96.712 73.9573C96.8553 74.7534 97.0631 75.5365 97.3332 76.2988C97.6128 77.0613 97.9516 77.8008 98.3463 78.5104C99.1368 79.9302 100.093 81.2508 101.195 82.4443L101.306 82.5659L101.267 82.7013C101.128 83.1302 100.9 83.5246 100.597 83.8582C100.294 84.1919 99.9243 84.4572 99.5113 84.6365C98.7408 84.9817 97.9093 85.1697 97.0654 85.1894C95.4277 85.2178 93.7954 84.9931 92.2261 84.5231C90.671 84.0857 89.1481 83.5407 87.6684 82.8921C86.1915 82.2424 84.7422 81.5458 83.3232 80.78C84.7974 81.4242 86.2715 82.0683 87.7761 82.6239C89.2701 83.1999 90.7977 83.6845 92.3503 84.0753C93.126 84.2633 93.9073 84.4125 94.6885 84.5259C95.4688 84.6306 96.257 84.6639 97.0433 84.6254C97.8108 84.5963 98.5654 84.4188 99.2656 84.1029C99.5974 83.9417 99.9006 83.7269 100.163 83.4671C100.287 83.3372 100.397 83.1945 100.491 83.0414C100.58 82.9002 100.648 82.7477 100.696 82.588L100.767 82.8479C99.6374 81.6133 98.6612 80.246 97.8604 78.7758C97.4631 78.0372 97.1253 77.2681 96.8501 76.4758C96.5787 75.6801 96.381 74.8611 96.2593 74.0292C96.0237 72.3666 96.1298 70.6732 96.5713 69.0532C96.7952 68.2512 97.0957 67.4726 97.4684 66.7283C97.8285 65.9824 98.2781 65.2833 98.8073 64.6466Z" fill="#B115BA"/>
<path d="M79.5215 65.1332C79.5215 65.1332 90.2878 82.4885 95.8614 80.9349C95.8614 80.9349 91.7205 75.6547 94.1029 67.588" fill="#032332"/>
<path d="M81.6084 65.1138C81.6084 65.1138 90.2877 77.8304 91.5244 77.8304C91.5244 77.8304 92.7639 76.2795 89.9757 65.7303" fill="#CD6586"/>
<path d="M49.4669 57.2545C49.4669 57.2545 25.3725 74.5766 23.5174 83.2626C21.6623 91.9485 18.2502 98.7767 27.2359 95.053C36.2216 91.3293 44.5862 94.1214 44.5862 94.1214" fill="#FF83FF"/>
<path d="M49.467 57.2545C44.7354 61.1247 40.0811 65.0503 35.642 69.208C33.4336 71.2786 31.2776 73.4321 29.2927 75.6796C28.2991 76.7954 27.3683 77.9656 26.5045 79.185C25.6764 80.3986 24.8951 81.673 24.4976 82.9723C24.4424 83.1354 24.4148 83.293 24.3706 83.4533L24.2491 84.02L23.9952 85.1507C23.8111 85.8989 23.6271 86.6454 23.4431 87.3899C23.0676 88.8689 22.6756 90.3424 22.3968 91.7854C22.2491 92.4724 22.1724 93.1727 22.1677 93.8754C22.1666 94.157 22.2104 94.4369 22.2974 94.7047C22.3499 94.8845 22.4708 95.0364 22.6342 95.1277C22.86 95.2343 23.108 95.2854 23.3575 95.2769C23.6856 95.275 24.0129 95.2417 24.3347 95.1774C25.0407 95.0295 25.7339 94.8262 26.4079 94.5692L27.479 94.1739C27.8462 94.0357 28.2216 93.9224 28.5833 93.8007C29.3369 93.5768 30.0905 93.3722 30.858 93.2146C31.2389 93.1289 31.6254 93.0654 32.0091 92.9963C32.3928 92.9271 32.7821 92.8801 33.1686 92.8442C33.9415 92.7557 34.72 92.7088 35.4957 92.6866C37.0448 92.6554 38.5938 92.758 40.1252 92.9935C41.647 93.2145 43.1414 93.5954 44.5836 94.1297C43.0984 93.8073 41.5883 93.6131 40.07 93.5491C38.5659 93.4701 37.0579 93.5062 35.5592 93.657C34.0677 93.8054 32.5905 94.0744 31.1423 94.4614C30.4218 94.6494 29.7151 94.8789 29.0167 95.1277C28.6716 95.2631 28.321 95.3875 27.9842 95.5368L26.9352 95.9791C26.192 96.2887 25.4259 96.5401 24.6439 96.731C24.2209 96.8309 23.7891 96.8883 23.3547 96.9025C22.8398 96.9252 22.3272 96.8218 21.8612 96.6011C21.5949 96.4698 21.3574 96.2865 21.1628 96.062C20.9785 95.8474 20.8294 95.6048 20.7211 95.3433C20.5459 94.8945 20.4524 94.418 20.4451 93.9362C20.4361 93.1107 20.5101 92.2864 20.6659 91.4758C20.942 89.9166 21.3423 88.4349 21.7094 86.9559C21.9026 86.2187 22.0867 85.4815 22.2615 84.7443L22.521 83.6385L22.6452 83.0856C22.7005 82.8811 22.7446 82.6599 22.8109 82.4609C23.0666 81.676 23.4014 80.9192 23.8102 80.2023C24.1994 79.511 24.6309 78.8444 25.1022 78.2064C26.0303 76.9522 27.0294 75.7523 28.0946 74.6125C30.2007 72.3684 32.4321 70.2456 34.778 68.2543C35.9347 67.2452 37.1245 66.2832 38.3198 65.3239C39.5151 64.3647 40.7188 63.4275 41.9472 62.5152C44.4124 60.6907 46.9024 58.9159 49.467 57.2545Z" fill="#B115BA"/>
<path d="M76.0321 62.6286C86.5692 71.6269 97.1008 66.6647 97.1008 66.6647L119.1 59.8365C115.072 51.7697 104.847 54.2522 104.847 54.2522C99.5798 38.738 93.7218 32.8414 78.8175 32.8414C59.2974 32.8414 51.8604 44.0126 46.284 53.022C40.7077 62.0314 42.8775 73.5012 42.8775 73.5012" fill="#FF83FF"/>
<path d="M76.0326 62.6286C77.489 63.8207 79.0776 64.8411 80.767 65.6695C81.1838 65.8768 81.6172 66.0593 82.0451 66.2417C82.473 66.4242 82.9119 66.5845 83.3592 66.7227C84.2414 67.0186 85.1449 67.2469 86.0618 67.4056C88.8039 67.9057 91.6206 67.819 94.3269 67.1512C95.2146 66.9399 96.0813 66.6485 96.9163 66.2804H96.9384L96.9716 66.2666L102.426 64.4199L107.895 62.5843C109.717 61.9798 111.542 61.3836 113.369 60.7957L118.863 59.0292L118.361 60.2124C117.799 59.0735 117.011 58.0616 116.045 57.2387C115.079 56.4158 113.955 55.7993 112.743 55.4271C111.509 55.0328 110.227 54.8123 108.933 54.772C108.279 54.7498 107.623 54.7637 106.97 54.8134C106.645 54.8411 106.316 54.8742 105.993 54.9185C105.67 54.9627 105.333 55.018 105.057 55.0816L104.298 55.2502L104.052 54.5259C103.395 52.5908 102.703 50.6805 101.905 48.8201C101.133 46.9597 100.222 45.1604 99.18 43.4376C98.1528 41.7354 96.9022 40.179 95.4615 38.8099C94.747 38.1359 93.9737 37.5271 93.1509 36.9909C92.3299 36.4471 91.4614 35.9789 90.556 35.5921C90.1088 35.3847 89.6422 35.2244 89.1757 35.0392C88.7091 34.854 88.2371 34.724 87.7512 34.6024C86.7879 34.337 85.8099 34.1284 84.8223 33.9776C82.8261 33.6821 80.811 33.5334 78.7932 33.5325C74.7461 33.5132 70.6881 33.9776 66.8371 35.1912C62.9734 36.3886 59.399 38.3736 56.3386 41.0215C53.255 43.656 50.7153 46.8849 48.4434 50.2797C47.8719 51.1284 47.3143 51.9909 46.7649 52.8562C46.209 53.7067 45.7101 54.5933 45.2714 55.5101C44.833 56.4272 44.4495 57.3697 44.123 58.3326C43.8028 59.3012 43.5328 60.2857 43.3142 61.2823C42.4663 65.3013 42.315 69.4364 42.867 73.5068C42.5131 71.4778 42.3421 69.421 42.3563 67.3613C42.3536 65.2949 42.5449 63.2327 42.9277 61.2021C43.1202 60.1763 43.3662 59.1612 43.6648 58.1612C43.9729 57.1673 44.3416 56.1933 44.769 55.2447C45.1956 54.2965 45.6844 53.3776 46.2321 52.494C46.764 51.6131 47.3069 50.7377 47.8609 49.8678C50.0693 46.3928 52.5759 43.0313 55.7092 40.264C58.8347 37.4644 62.5051 35.3429 66.4893 34.0329C70.4645 32.717 74.655 32.1918 78.8097 32.1531C80.8977 32.1286 82.9846 32.2561 85.0541 32.5346C86.0988 32.6794 87.134 32.8862 88.1543 33.1538C88.6705 33.2754 89.1729 33.4468 89.6781 33.6044C90.1833 33.762 90.683 33.9583 91.1688 34.1794C92.1551 34.5926 93.1022 35.0941 93.9984 35.6778C94.9001 36.2571 95.749 36.9148 96.5354 37.6433C98.0873 39.0988 99.4357 40.7578 100.544 42.5751C101.645 44.3593 102.61 46.2241 103.431 48.1538C104.259 50.0668 104.994 52.0103 105.659 53.9592L104.654 53.4063C105.046 53.3151 105.383 53.2598 105.758 53.2045C106.134 53.1492 106.476 53.1105 106.835 53.0801C107.553 53.0174 108.274 52.9962 108.994 53.0165C110.45 53.0486 111.894 53.2916 113.281 53.738C114.7 54.2033 116.013 54.9435 117.146 55.9164C118.273 56.9018 119.188 58.1055 119.837 59.455L120.276 60.3562L119.332 60.6326L113.811 62.2775C111.971 62.8304 110.13 63.3713 108.29 63.9002L102.769 65.5036L97.2255 67.0683L97.2835 67.0462C96.3837 67.4121 95.4523 67.6944 94.5008 67.8894C93.5625 68.0881 92.6115 68.2211 91.6547 68.2874C89.7469 68.4236 87.8296 68.2821 85.9624 67.8672C85.0325 67.6669 84.119 67.397 83.2294 67.06C82.3401 66.73 81.4749 66.3384 80.64 65.8879C78.9854 64.9805 77.4396 63.887 76.0326 62.6286Z" fill="#B115BA"/>
<path d="M76.7022 58.563C79.8729 58.2612 82.1414 54.8376 81.7692 50.9162C81.397 46.9948 78.5249 44.0605 75.3543 44.3624C72.1836 44.6642 69.915 48.0878 70.2873 52.0092C70.6595 55.9306 73.5316 58.8648 76.7022 58.563Z" fill="white"/>
<path d="M76.8466 57.121C78.7435 56.7809 79.9074 54.4133 79.446 51.8329C78.9847 49.2524 77.0729 47.4363 75.176 47.7764C73.279 48.1165 72.1152 50.484 72.5765 53.0645C73.0378 55.6449 74.9496 57.4611 76.8466 57.121Z" fill="black"/>
<path d="M74.8586 58.1612C74.8586 58.1612 71.3802 57.0554 70.7646 51.7697C70.149 46.4841 72.9345 44.3223 76.0318 44.9415C79.1292 45.5607 80.3687 46.4924 81.6082 49.9175C82.8477 53.3427 81.9201 39.9876 81.9201 39.9876L71.0766 40.3L67.0461 45.8842L65.8066 52.4L70.4555 56.1238L74.8586 58.1612Z" fill="#FF83FF"/>
<path d="M78.1276 59.7397C78.1276 59.7397 75.1655 57.0941 70.2158 56.8343L78.1276 59.7397Z" fill="#FF83FF"/>
<path d="M78.1276 59.7397C77.5037 59.3776 76.8771 59.0569 76.2366 58.7583C75.9164 58.6118 75.5989 58.4653 75.276 58.3354C75.1131 58.2745 74.953 58.2027 74.7901 58.1363L74.296 57.9594C73.6389 57.7216 72.9709 57.5088 72.2918 57.3346C71.6127 57.1605 70.9115 57.0084 70.2158 56.8343C70.9373 56.7587 71.6654 56.7744 72.3829 56.8812C73.1038 56.9808 73.8125 57.1549 74.4975 57.401C75.1821 57.6479 75.8382 57.9677 76.4547 58.3547C77.0818 58.7251 77.6464 59.1926 78.1276 59.7397Z" fill="#B115BA"/>
<path d="M71.2287 53.785C70.8771 52.8483 70.6335 51.8744 70.5027 50.8823C70.3534 49.8729 70.3692 48.8458 70.5496 47.8414C70.6451 47.3209 70.8182 46.8177 71.0631 46.3486C71.3162 45.8628 71.6623 45.4316 72.0817 45.0797C72.5047 44.7288 72.9938 44.4665 73.52 44.3084C74.0288 44.152 74.556 44.0637 75.088 44.0458C76.1428 43.9936 77.1961 44.1768 78.1715 44.5821C79.1472 45.0183 79.9785 45.7241 80.5677 46.6168C81.1228 47.4851 81.4983 48.4562 81.6719 49.4725C81.8569 50.4605 81.8895 51.4712 81.7686 52.4691C81.7007 51.4884 81.5229 50.5185 81.2385 49.5775C81.1014 49.1171 80.9269 48.6687 80.7168 48.2367C80.517 47.8089 80.2717 47.4039 79.9852 47.0287C79.4328 46.2898 78.6892 45.7162 77.8347 45.37C76.9706 45.0322 76.0448 44.8815 75.1183 44.9277C74.2139 44.9187 73.3297 45.1964 72.5924 45.7211C71.897 46.3086 71.4123 47.1075 71.2121 47.9962C70.9875 48.9324 70.8946 49.8955 70.9361 50.8575C70.9559 51.8395 71.0538 52.8185 71.2287 53.785Z" fill="#B115BA"/>
<path d="M67.5155 42.307C67.3237 41.6094 67.2842 40.8787 67.3995 40.1645C67.5039 39.4071 67.8154 38.6934 68.2995 38.1022C68.5598 37.7974 68.8803 37.5498 69.2408 37.3752C69.5975 37.2099 69.9829 37.116 70.3754 37.0987C71.1126 37.0755 71.8406 37.2676 72.4707 37.6516C71.8007 37.6108 71.1281 37.6554 70.4693 37.7843C69.8843 37.9136 69.3572 38.2299 68.9675 38.6855C68.5714 39.1753 68.2666 39.7325 68.0676 40.3304C67.8468 40.9524 67.6811 41.6131 67.5155 42.307Z" fill="#B115BA"/>
</g>
<defs>
<clipPath id="clip0">
<rect width="140" height="157.5" fill="white" transform="translate(0 0.201355)"/>
</clipPath>
</defs>
</svg>
