<svg width="45" height="49" viewBox="0 0 45 49" fill="none" xmlns="http://www.w3.org/2000/svg">
<path d="M43.2706 13.6543C38.8813 3.24936 27.7094 -2.17489 16.8331 0.819076C6.37274 3.69291 -0.456088 13.9408 0.865322 24.7708C1.44748 29.502 3.33257 33.6418 6.57603 37.1163C10.8822 41.7366 16.2325 44.093 22.5438 44.2408C22.8303 44.25 22.9319 44.3147 22.9227 44.6197C22.9042 45.5253 22.9135 46.4401 22.9135 47.3457C22.9135 47.6229 22.9227 47.8909 23.2184 48.011C23.5049 48.1404 23.7821 48.1034 24.0408 47.9093C26.2124 46.2275 28.3747 44.555 30.537 42.8732C30.8696 42.6145 30.8604 42.097 30.5277 41.8382C28.3654 40.1564 26.1939 38.4747 24.0316 36.8021C23.7728 36.608 23.4864 36.5803 23.1999 36.7097C22.9042 36.8391 22.9042 37.107 22.9042 37.375C22.9042 38.5116 22.895 39.6575 22.9135 40.7941C22.9135 41.1082 22.8488 41.2099 22.5161 41.2006C21.3056 41.1729 20.0951 41.0528 18.903 40.7941C8.44264 38.5024 1.95572 28.4486 4.19195 18.0159C6.27109 8.28551 15.8629 1.65997 25.6579 3.2586C31.9693 4.29355 36.682 7.68487 39.7222 13.3124C41.2007 16.0476 42.0601 18.9584 41.4409 22.128C40.5816 26.5542 38.0589 29.6868 33.8544 31.267C29.5944 32.8656 25.6025 32.1356 22.0264 29.2895C21.9986 29.0769 22.1373 29.1509 22.2389 29.1601C22.9782 29.1971 23.7174 29.1878 24.4474 29.04C28.9014 28.1529 31.7105 24.281 31.1931 19.7531C30.6571 15.1236 26.0091 11.7507 21.4534 12.684C17.3691 13.5157 14.6523 16.8423 14.6523 21.0283C14.6523 25.0388 14.6523 29.04 14.6523 33.0412C14.6523 33.7435 14.8372 34.0114 15.5117 34.2424C16.1678 34.4642 16.7777 34.3626 17.3506 33.9745C17.5909 33.8081 17.711 33.6141 17.7018 33.2907C17.674 32.3943 17.6925 31.5072 17.6925 30.6109C17.6925 30.1673 17.6925 29.7145 17.6925 29.1786C17.9328 29.4558 18.0899 29.6591 18.2654 29.8531C21.0746 33.0596 24.6045 34.9078 28.846 35.0556C35.1943 35.2774 39.9994 32.5237 42.9934 26.9146C45.2943 22.5992 45.1557 18.1175 43.2706 13.6543ZM17.443 20.862C17.443 17.9697 19.8086 15.6133 22.6917 15.6041C25.6025 15.5948 27.9773 17.9697 27.9681 20.8805C27.9589 23.7728 25.6025 26.1384 22.7194 26.1384C19.8086 26.1476 17.4338 23.782 17.443 20.862Z" fill="#33CC66"/>
</svg>
