<svg width="677" height="307" viewBox="0 0 677 307" fill="none" xmlns="http://www.w3.org/2000/svg">
<g clip-path="url(#clip0)">
<path d="M225.881 21.9813L255.822 282.287C256.047 284.11 256.929 285.788 258.303 287.006C259.676 288.223 261.446 288.895 263.279 288.897H287.016C287.808 288.893 288.567 288.575 289.127 288.014C289.688 287.452 290.004 286.692 290.008 285.898V281.046H371.48V285.898C371.484 286.692 371.801 287.452 372.361 288.014C372.922 288.575 373.68 288.893 374.473 288.897H398.883C400.717 288.895 402.486 288.223 403.86 287.006C405.233 285.788 406.116 284.11 406.341 282.287L436.282 21.9813H225.881Z" fill="url(#paint0_linear)"/>
<path style="mix-blend-mode:multiply" opacity="0.5" d="M436.235 21.9813H225.912L227.103 31.4018H435.044L436.235 21.9813Z" fill="url(#paint1_linear)"/>
<path d="M264.94 20.4112H255.54V37.6822H264.94V20.4112Z" fill="url(#paint2_linear)"/>
<path style="mix-blend-mode:multiply" opacity="0.2" d="M264.94 37.6979V20.4112H275.046L264.94 37.6979Z" fill="url(#paint3_linear)"/>
<path style="mix-blend-mode:multiply" opacity="0.2" d="M335.445 37.6979V20.4112H340.913L335.445 37.6979Z" fill="url(#paint4_linear)"/>
<path style="mix-blend-mode:multiply" opacity="0.2" d="M326.044 37.6979V20.4112H320.576L326.044 37.6979Z" fill="url(#paint5_linear)"/>
<path style="mix-blend-mode:multiply" opacity="0.2" d="M396.549 37.6979V20.4112H386.459L396.549 37.6979Z" fill="url(#paint6_linear)"/>
<path d="M335.445 20.4112H326.044V37.6822H335.445V20.4112Z" fill="url(#paint7_linear)"/>
<path d="M405.949 20.4112H396.549V37.6822H405.949V20.4112Z" fill="url(#paint8_linear)"/>
<path d="M445.526 4.2641e-07H216.621C215.561 -0.00035706 214.512 0.224066 213.544 0.65855C212.576 1.09303 211.711 1.72775 211.005 2.52102C210.299 3.31429 209.769 4.24819 209.449 5.2614C209.129 6.2746 209.026 7.34421 209.148 8.4L210.714 21.9813H451.386L452.952 8.4C453.073 7.34815 452.972 6.28252 452.655 5.27259C452.337 4.26265 451.811 3.33106 451.11 2.53853C450.41 1.74601 449.55 1.11034 448.588 0.672948C447.626 0.235555 446.582 0.00625983 445.526 4.2641e-07Z" fill="url(#paint9_linear)"/>
<path style="mix-blend-mode:multiply" opacity="0.6" d="M400.403 54.9532H261.932C260.613 54.9518 259.309 55.2317 258.107 55.7745C256.904 56.3172 255.831 57.1103 254.958 58.1009C254.085 59.0916 253.432 60.2572 253.044 61.5201C252.655 62.783 252.539 64.1144 252.704 65.4257L278.117 288.897H287.016C287.808 288.893 288.567 288.575 289.128 288.014C289.688 287.452 290.004 286.692 290.009 285.898V281.046H371.48V285.898C371.485 286.692 371.801 287.452 372.361 288.014C372.922 288.575 373.681 288.893 374.473 288.897H384.218L409.631 65.4257C409.796 64.1144 409.68 62.783 409.291 61.5201C408.903 60.2572 408.25 59.0916 407.377 58.1009C406.504 57.1103 405.431 56.3172 404.228 55.7745C403.026 55.2317 401.722 54.9518 400.403 54.9532Z" fill="url(#paint10_linear)"/>
<path fill-rule="evenodd" clip-rule="evenodd" d="M355.672 142.878H343.279V136.598L333.11 153.084L343.279 169.57V163.29H355.405C356.593 163.291 357.761 162.978 358.79 162.382C359.819 161.787 360.672 160.93 361.265 159.898L363.365 156.24L373.047 139.346L355.672 142.878Z" fill="white"/>
<path fill-rule="evenodd" clip-rule="evenodd" d="M371.794 132.516L361.265 114.24L344.281 124.037L355.123 142.878H366.091C367.714 142.875 369.283 142.292 370.515 141.232C371.748 140.173 372.562 138.708 372.812 137.1C373.008 135.5 372.649 133.881 371.794 132.516Z" fill="url(#paint11_linear)"/>
<path fill-rule="evenodd" clip-rule="evenodd" d="M354.246 102.857L348.496 92.8866C347.903 91.8547 347.049 90.9978 346.021 90.4023C344.992 89.8069 343.824 89.494 342.636 89.4952H319.965L331.261 102.291L337.247 112.686L331.967 115.731L350.564 116.297L359.385 99.8735L354.246 102.857Z" fill="white"/>
<path fill-rule="evenodd" clip-rule="evenodd" d="M320.372 121.18L331.261 102.339L325.84 92.918C325.244 91.8859 324.387 91.0293 323.356 90.434C322.325 89.8387 321.155 89.5258 319.965 89.5266C318.775 89.5242 317.605 89.8365 316.573 90.4319C315.541 91.0273 314.685 91.8849 314.09 92.918L303.451 111.382L320.372 121.18Z" fill="url(#paint12_linear)"/>
<path fill-rule="evenodd" clip-rule="evenodd" d="M318.618 135.766L309.797 119.327L291.184 119.877L296.354 122.875L290.604 132.845C290.011 133.877 289.699 135.047 289.699 136.237C289.699 137.427 290.011 138.597 290.604 139.628L292.562 143.02L301.963 159.286L307.415 143.02L313.369 132.704L318.618 135.766Z" fill="white"/>
<path fill-rule="evenodd" clip-rule="evenodd" d="M329.178 142.878H306.616L300.976 152.66C300.276 153.812 299.927 155.143 299.973 156.491C300.054 158.317 300.833 160.042 302.148 161.308C303.464 162.574 305.215 163.283 307.039 163.289H329.178V142.878Z" fill="url(#paint13_linear)"/>
<path d="M303.624 301.458L313.291 216.673H296.229H274.999H253.785H236.723L246.374 301.458H303.624Z" fill="url(#paint14_linear)"/>
<path d="M311.661 227.663H299.973H274.999H250.04H238.352L245.497 290.467H250.04H274.999H299.973H304.501L311.661 227.663Z" fill="url(#paint15_linear)"/>
<g style="mix-blend-mode:multiply">
<g style="mix-blend-mode:multiply">
<path d="M279.041 227.663H277.474V290.467H279.041V227.663Z" fill="#C6C6C6"/>
</g>
<g style="mix-blend-mode:multiply">
<path d="M272.774 227.663H271.207V290.467H272.774V227.663Z" fill="#C6C6C6"/>
</g>
<g style="mix-blend-mode:multiply">
<path d="M284.713 227.663H282.958L281.282 290.467H283.021L284.713 227.663Z" fill="#C6C6C6"/>
</g>
<g style="mix-blend-mode:multiply">
<path d="M267.055 227.663H265.301L266.977 290.467H268.732L267.055 227.663Z" fill="#C6C6C6"/>
</g>
<g style="mix-blend-mode:multiply">
<path d="M290.557 227.663H288.802L286.013 290.467H287.768L290.557 227.663Z" fill="#C6C6C6"/>
</g>
<g style="mix-blend-mode:multiply">
<path d="M261.196 227.663H259.441L262.245 290.467H263.985L261.196 227.663Z" fill="#C6C6C6"/>
</g>
<g style="mix-blend-mode:multiply">
<path d="M296.417 227.663H294.662L290.76 290.467H292.515L296.417 227.663Z" fill="#C6C6C6"/>
</g>
<g style="mix-blend-mode:multiply">
<path d="M257.498 290.467H259.253L255.336 227.663H253.581L257.498 290.467Z" fill="#C6C6C6"/>
</g>
<g style="mix-blend-mode:multiply">
<path d="M295.508 290.467H297.263L302.276 227.663H300.521L295.508 290.467Z" fill="#C6C6C6"/>
</g>
<g style="mix-blend-mode:multiply">
<path d="M247.737 227.663L252.751 290.467H254.506L249.492 227.663H247.737Z" fill="#C6C6C6"/>
</g>
<g style="mix-blend-mode:multiply">
<path d="M300.24 290.467H302.01L308.136 227.663H306.381L300.24 290.467Z" fill="#C6C6C6"/>
</g>
<g style="mix-blend-mode:multiply">
<path d="M248.003 290.467H249.758L243.632 227.663H241.877L248.003 290.467Z" fill="#C6C6C6"/>
</g>
</g>
<path d="M238.133 209.252H311.943L310.846 199.832C310.689 198.531 310.062 197.334 309.083 196.466C308.104 195.598 306.842 195.119 305.535 195.121H244.572C243.268 195.123 242.009 195.603 241.034 196.471C240.058 197.339 239.433 198.534 239.277 199.832L238.133 209.252Z" fill="#2C2C2D"/>
<g style="mix-blend-mode:multiply">
<path d="M238.885 205.682H311.129L311.473 208.822H238.54L238.885 205.682Z" fill="#C6C6C6"/>
</g>
<path d="M314.403 210.392C314.306 209.957 314.067 209.566 313.724 209.282C313.38 208.998 312.952 208.836 312.507 208.822H237.49C237.045 208.836 236.617 208.998 236.274 209.282C235.931 209.566 235.692 209.957 235.595 210.392C235.587 210.465 235.587 210.539 235.595 210.612C235.566 212.968 235.239 215.31 234.623 217.583L234.451 218.18H315.609L315.437 217.583C314.821 215.31 314.495 212.968 314.466 210.612C314.453 210.537 314.432 210.463 314.403 210.392Z" fill="#2C2C2D"/>
<path d="M274.999 277.184C271.541 277.184 268.16 276.156 265.285 274.231C262.409 272.306 260.168 269.569 258.845 266.367C257.521 263.165 257.175 259.642 257.85 256.243C258.524 252.844 260.19 249.722 262.635 247.272C265.08 244.821 268.196 243.152 271.588 242.476C274.979 241.8 278.495 242.147 281.69 243.473C284.885 244.8 287.616 247.045 289.537 249.927C291.458 252.808 292.484 256.196 292.484 259.662C292.476 264.306 290.631 268.758 287.354 272.043C284.076 275.327 279.634 277.176 274.999 277.184Z" fill="url(#paint16_linear)"/>
<path d="M282.175 252.785C287 257.935 287.674 265.173 283.741 268.941C279.809 272.709 272.586 271.579 267.76 266.429C262.935 261.279 262.261 254.057 266.194 250.288C270.126 246.52 277.474 247.682 282.175 252.785Z" fill="url(#paint17_linear)"/>
<g style="mix-blend-mode:multiply">
<path d="M267.541 251.215L267.682 251.45C267.799 251.673 267.93 251.888 268.074 252.094C268.525 252.778 269.051 253.409 269.641 253.978C271.578 255.66 273.608 257.232 275.72 258.688C276.863 259.536 278.023 260.431 279.057 261.373C280.042 262.245 280.916 263.237 281.658 264.325C281.954 264.787 282.206 265.276 282.41 265.785C282.559 266.189 282.654 266.612 282.692 267.041C282.723 267.401 282.686 267.763 282.582 268.109L282.472 267.858C282.368 267.64 282.247 267.43 282.112 267.23C281.901 266.938 281.665 266.665 281.407 266.413C281.07 266.093 280.715 265.794 280.342 265.518C278.775 264.294 276.268 262.896 273.902 261.153C272.718 260.289 271.607 259.328 270.581 258.28C269.638 257.359 268.841 256.3 268.215 255.14C267.771 254.286 267.505 253.352 267.431 252.392C267.406 252.131 267.406 251.868 267.431 251.607L267.541 251.215Z" fill="#C6C6C6"/>
</g>
<g style="mix-blend-mode:multiply" opacity="0.75">
<g style="mix-blend-mode:multiply" opacity="0.75">
<path d="M299.19 216.673L293.032 301.458H303.373L313.024 216.673H299.19Z" fill="#E6E7E8"/>
</g>
</g>
<g style="mix-blend-mode:multiply" opacity="0.75">
<g style="mix-blend-mode:multiply" opacity="0.75">
<path d="M316.643 217.049C316.018 214.702 315.682 212.287 315.641 209.858C315.641 209.78 315.641 209.717 315.641 209.639C315.468 208.728 313.698 207.283 313.698 207.283H311.645L310.533 197.863C310.38 196.564 309.755 195.367 308.779 194.498C307.803 193.63 306.543 193.151 305.237 193.153H294.709C296.511 193.153 298.03 195.209 298.25 197.863L298.97 207.283H300.427C301.082 207.921 301.53 208.742 301.712 209.639C301.72 209.712 301.72 209.785 301.712 209.858C301.74 212.27 301.965 214.675 302.386 217.049L302.496 218.243H316.675L316.643 217.049Z" fill="#E6E7E8"/>
</g>
</g>
<path d="M205.403 83.2148H181.902V92.6354H205.403V83.2148Z" fill="url(#paint18_linear)"/>
<path d="M220.475 177.954C223.113 175.708 225.232 172.914 226.687 169.767C228.142 166.62 228.899 163.194 228.905 159.725C228.903 148.022 225.583 136.56 219.332 126.675L205.403 104.568V97.3457H183.468V104.568L169.54 126.675C163.288 136.56 159.968 148.022 159.967 159.725C159.972 163.194 160.729 166.62 162.184 169.767C163.639 172.914 165.759 175.708 168.396 177.954C165.783 179.929 163.662 182.483 162.2 185.417C160.737 188.351 159.973 191.584 159.967 194.864V289.431C159.967 291.01 160.277 292.574 160.88 294.033C161.483 295.492 162.367 296.818 163.482 297.935C164.596 299.052 165.919 299.938 167.375 300.542C168.832 301.147 170.392 301.458 171.968 301.458H172.219C175.302 301.454 178.268 300.269 180.507 298.145L183.327 295.444L185.348 297.579C186.211 298.527 187.222 299.328 188.341 299.95C190.729 301.253 193.478 301.733 196.165 301.316C198.852 300.899 201.327 299.608 203.21 297.642L205.309 295.444L208.129 298.145C210.357 300.257 213.303 301.442 216.37 301.458H216.856C220.039 301.458 223.092 300.19 225.342 297.935C227.593 295.68 228.858 292.62 228.858 289.431V194.864C228.857 191.588 228.1 188.357 226.646 185.424C225.192 182.49 223.08 179.934 220.475 177.954Z" fill="url(#paint19_linear)"/>
<path d="M206.97 92.6354H180.335V97.3456H206.97V92.6354Z" fill="url(#paint20_linear)"/>
<path d="M228.905 196.261H159.967V262.205H228.905V196.261Z" fill="white"/>
<path d="M228.905 200.972H159.967V257.495H228.905V200.972Z" fill="url(#paint21_linear)"/>
<g style="mix-blend-mode:overlay" opacity="0.75">
<path d="M183.468 97.3457V104.568L169.54 126.675C163.288 136.56 159.968 148.022 159.967 159.725C159.972 163.194 160.729 166.62 162.184 169.767C163.639 172.914 165.759 175.708 168.396 177.954C165.783 179.929 163.662 182.483 162.2 185.417C160.737 188.351 159.973 191.584 159.967 194.864V289.431C159.967 291.01 160.277 292.574 160.88 294.033C161.483 295.492 162.367 296.818 163.482 297.935C164.596 299.052 165.919 299.938 167.375 300.542C168.832 301.147 170.392 301.458 171.968 301.458H172.501C173.624 301.458 174.741 301.305 175.822 301.002C172.078 299.573 169.32 294.957 169.32 289.462V194.864C169.169 188.648 171.375 182.605 175.493 177.954C171.387 172.783 169.22 166.333 169.367 159.725C169.305 148.331 171.699 137.057 176.387 126.675L186.602 104.568V97.3457H183.468Z" fill="white"/>
</g>
<g style="mix-blend-mode:multiply" opacity="0.75">
<path d="M220.475 177.954C223.113 175.708 225.232 172.914 226.687 169.767C228.143 166.62 228.899 163.194 228.905 159.725C228.903 148.022 225.583 136.56 219.332 126.675L205.403 104.568V97.3457H199.136V104.568L205.638 126.675C208.668 137.427 210.171 148.553 210.103 159.725C210.256 166.029 208.908 172.277 206.171 177.954C208.646 181.989 210.103 188.238 210.103 194.864V289.462C210.198 292.738 209.448 295.983 207.926 298.883C209.096 299.847 210.45 300.563 211.905 300.987C212.922 301.288 213.978 301.441 215.039 301.442H216.903C220.086 301.442 223.139 300.175 225.389 297.919C227.64 295.664 228.905 292.605 228.905 289.415V194.864C228.899 191.584 228.134 188.351 226.672 185.417C225.209 182.483 223.088 179.929 220.475 177.954Z" fill="#E6E7E8"/>
</g>
<path d="M159.967 285.757V289.431C159.967 292.62 161.231 295.68 163.482 297.935C165.733 300.19 168.785 301.458 171.968 301.458H172.501C175.502 301.459 178.395 300.339 180.617 298.317L183.453 295.695L185.427 297.705C186.338 298.667 187.396 299.477 188.56 300.107C190.935 301.316 193.63 301.745 196.262 301.334C198.894 300.922 201.33 299.691 203.225 297.815L205.309 295.695L208.223 298.317C210.445 300.339 213.338 301.459 216.339 301.458H216.903C220.086 301.458 223.139 300.19 225.389 297.935C227.64 295.68 228.905 292.62 228.905 289.431V285.757H159.967Z" fill="#331B1C"/>
<path d="M141.432 153.586L136.262 137.289C133.586 128.947 132.217 120.239 132.204 111.477H114.092C114.078 120.239 112.71 128.947 110.034 137.289L104.864 153.586C97.807 176.57 94.2005 200.477 94.1626 224.523V293.089C94.1626 297.674 98.9726 301.395 104.926 301.395H141.369C147.323 301.395 152.133 297.674 152.133 293.089V224.523C152.095 200.477 148.489 176.57 141.432 153.586Z" fill="url(#paint22_linear)"/>
<g style="mix-blend-mode:overlay" opacity="0.5">
<path d="M109.501 137.289L104.503 153.586C97.6758 176.612 94.1932 200.503 94.1626 224.523V293.089C94.1626 297.674 98.8629 301.395 104.55 301.395H110.457C106.65 301.395 103.563 297.674 103.563 293.089V224.523C103.562 200.69 105.86 176.913 110.426 153.524L113.747 137.226C115.466 128.751 116.332 120.125 116.332 111.477H113.402C113.388 120.227 112.073 128.927 109.501 137.289Z" fill="white"/>
</g>
<g style="mix-blend-mode:multiply" opacity="0.75">
<path d="M141.683 153.586L136.638 137.289C134.028 128.934 132.697 120.231 132.689 111.477H126.814C126.81 120.098 127.249 128.713 128.13 137.289L129.822 153.586C132.157 176.007 133.332 201.647 133.332 224.523V293.089C133.332 297.674 131.765 301.395 129.807 301.395H141.636C147.433 301.395 152.133 297.674 152.133 293.089V224.523C152.096 200.495 148.576 176.6 141.683 153.586Z" fill="#E6E7E8"/>
</g>
<path d="M132.801 105.196H114V109.906H132.801V105.196Z" fill="url(#paint23_linear)"/>
<path d="M132.611 109.906H114.186C113.152 109.451 112.306 110.377 112.306 111.476C112.306 112.576 113.152 113.533 114.186 114.617H132.611C133.645 113.58 134.491 112.654 134.491 111.476C134.491 110.299 133.645 109.451 132.611 109.906Z" fill="url(#paint24_linear)"/>
<path d="M373.047 216.892V213.532H332.311V217.379C332.311 217.944 332.191 218.502 331.959 219.016C331.726 219.531 331.387 219.99 330.964 220.362L329.836 221.367C328.643 222.433 327.688 223.739 327.035 225.2C326.381 226.661 326.044 228.244 326.044 229.846V294.502C326.044 296.347 326.775 298.116 328.077 299.42C329.379 300.725 331.144 301.458 332.985 301.458H375.507C377.348 301.458 379.113 300.725 380.415 299.42C381.717 298.116 382.448 296.347 382.448 294.502V231.212C382.449 229.244 381.938 227.309 380.965 225.599C379.993 223.889 378.592 222.463 376.901 221.461L375.006 220.331C374.411 219.976 373.918 219.473 373.575 218.87C373.231 218.268 373.05 217.586 373.047 216.892Z" fill="url(#paint25_linear)"/>
<path d="M382.448 237.586V231.165C382.448 229.193 381.936 227.254 380.96 225.542C379.985 223.829 378.58 222.401 376.886 221.399L375.021 220.3C374.42 219.946 373.922 219.442 373.576 218.836C373.229 218.23 373.047 217.544 373.047 216.845V213.532H332.311V217.332C332.313 217.899 332.194 218.461 331.962 218.978C331.729 219.495 331.389 219.956 330.964 220.331L329.867 221.304C328.666 222.368 327.704 223.675 327.044 225.14C326.385 226.604 326.044 228.192 326.044 229.799V283.182C337.873 260.086 370.619 254.7 382.448 237.586Z" fill="url(#paint26_linear)"/>
<path d="M326.044 283.04V295.036C326.053 296.19 326.349 297.323 326.906 298.333C339.44 276.587 370.885 271.061 382.448 254.371V237.508C370.619 254.606 337.873 259.991 326.044 283.04Z" fill="url(#paint27_linear)"/>
<path d="M372.671 211.962H332.687C331.614 211.962 330.744 212.834 330.744 213.909V214.726C330.744 215.801 331.614 216.673 332.687 216.673H372.671C373.744 216.673 374.614 215.801 374.614 214.726V213.909C374.614 212.834 373.744 211.962 372.671 211.962Z" fill="url(#paint28_linear)"/>
<g style="mix-blend-mode:multiply" opacity="0.75">
<path d="M376.901 221.461L375.006 220.331C374.411 219.976 373.918 219.473 373.575 218.87C373.231 218.268 373.05 217.586 373.047 216.892V213.532H365.213V216.94C365.157 218.161 365.51 219.365 366.216 220.362L367.093 221.399C369.07 224.212 370.062 227.602 369.914 231.039V294.471C369.914 298.333 368.253 301.458 366.2 301.458H375.507C376.418 301.458 377.321 301.278 378.163 300.928C379.005 300.579 379.77 300.066 380.415 299.42C381.059 298.774 381.571 298.008 381.919 297.164C382.268 296.32 382.448 295.416 382.448 294.502V231.212C382.446 229.244 381.933 227.311 380.961 225.602C379.989 223.892 378.59 222.466 376.901 221.461Z" fill="#E6E7E8"/>
</g>
<g style="mix-blend-mode:overlay" opacity="0.25">
<path d="M335.445 294.471V230.223C335.363 227.017 336.381 223.881 338.328 221.336L339.127 220.378C339.816 219.48 340.176 218.371 340.145 217.238V213.532H332.311V217.379C332.313 217.944 332.194 218.503 331.961 219.018C331.729 219.532 331.389 219.991 330.964 220.362L329.836 221.367C328.643 222.433 327.688 223.739 327.035 225.2C326.381 226.661 326.044 228.244 326.044 229.846V294.502C326.044 296.347 326.775 298.116 328.077 299.42C329.379 300.725 331.144 301.458 332.985 301.458H340.145C337.56 301.458 335.445 298.317 335.445 294.471Z" fill="white"/>
</g>
<path d="M125.498 229.233H87.8955V301.458H125.498V229.233Z" fill="url(#paint29_linear)"/>
<path d="M91.0291 229.233H11.124V301.458H91.0291V229.233Z" fill="url(#paint30_linear)"/>
<path fill-rule="evenodd" clip-rule="evenodd" d="M78.4794 251.231H0L11.5784 229.25H90.0578L78.4794 251.231Z" fill="url(#paint31_linear)"/>
<path fill-rule="evenodd" clip-rule="evenodd" d="M101.291 251.231H138.33L129.039 229.25H92.0005L101.291 251.231Z" fill="url(#paint32_linear)"/>
<path d="M570.46 233.944H595.528V226.093H570.46V233.944Z" fill="url(#paint33_linear)"/>
<path d="M570.46 301.458H651.932V230.803H570.46V301.458Z" fill="url(#paint34_linear)"/>
<path d="M570.46 296.747H651.932V293.607H570.46V296.747Z" fill="url(#paint35_linear)"/>
<path d="M570.46 290.467H651.932V287.327H570.46V290.467Z" fill="url(#paint36_linear)"/>
<path d="M570.46 284.187H651.932V281.046H570.46V284.187Z" fill="url(#paint37_linear)"/>
<path d="M570.46 277.906H651.932V274.766H570.46V277.906Z" fill="url(#paint38_linear)"/>
<path d="M570.46 271.626H651.932V268.486H570.46V271.626Z" fill="url(#paint39_linear)"/>
<path d="M570.46 265.345H651.932V262.205H570.46V265.345Z" fill="url(#paint40_linear)"/>
<path d="M570.46 259.065H651.932V255.925H570.46V259.065Z" fill="url(#paint41_linear)"/>
<path d="M570.46 252.785H651.932V249.645H570.46V252.785Z" fill="url(#paint42_linear)"/>
<path d="M570.46 246.504H651.932V243.364H570.46V246.504Z" fill="url(#paint43_linear)"/>
<path d="M570.46 240.224H651.932V237.084H570.46V240.224Z" fill="url(#paint44_linear)"/>
<path d="M570.46 233.944H651.932V230.803H570.46V233.944Z" fill="url(#paint45_linear)"/>
<path d="M595.528 301.458H677V230.803H595.528V301.458Z" fill="url(#paint46_linear)"/>
<path d="M595.528 296.747H677V293.607H595.528V296.747Z" fill="url(#paint47_linear)"/>
<path d="M595.528 290.467H677V287.327H595.528V290.467Z" fill="url(#paint48_linear)"/>
<path d="M595.528 284.187H677V281.046H595.528V284.187Z" fill="url(#paint49_linear)"/>
<path d="M595.528 277.906H677V274.766H595.528V277.906Z" fill="url(#paint50_linear)"/>
<path d="M595.528 271.626H677V268.486H595.528V271.626Z" fill="url(#paint51_linear)"/>
<path d="M595.528 265.345H677V262.205H595.528V265.345Z" fill="url(#paint52_linear)"/>
<path d="M595.528 259.065H677V255.925H595.528V259.065Z" fill="url(#paint53_linear)"/>
<path d="M595.528 252.785H677V249.645H595.528V252.785Z" fill="url(#paint54_linear)"/>
<path d="M595.528 246.504H677V243.364H595.528V246.504Z" fill="url(#paint55_linear)"/>
<path d="M595.528 240.224H677V237.084H595.528V240.224Z" fill="url(#paint56_linear)"/>
<path d="M595.528 233.944H677V230.803H595.528V233.944Z" fill="url(#paint57_linear)"/>
<path d="M598.066 233.284C608.47 233.284 647.936 232.06 676.06 214.553L675.183 210.863C643.158 230.803 595.998 229.233 595.528 229.233V233.206C595.528 233.253 596.452 233.284 598.066 233.284Z" fill="url(#paint58_linear)"/>
<path d="M605.132 230.38C619.233 230.38 645.524 227.412 673.929 203.688L672.801 200.171C638.975 228.433 608.156 226.768 598.019 226.234C596.97 226.234 596.124 226.125 595.544 226.125V230.081C596.155 230.081 596.923 230.081 597.957 230.191C599.727 230.254 602.156 230.38 605.132 230.38Z" fill="url(#paint59_linear)"/>
<path d="M498.388 131.888V144.009L481.154 167.968V301.458H540.691V167.968L557.926 144.009V131.888H498.388Z" fill="url(#paint60_linear)"/>
<path d="M519.9 168L503.292 144.448H561.388L577.996 168H519.9Z" fill="url(#paint61_linear)"/>
<path d="M503.089 144.448H562.626V131.888H503.089V144.448Z" fill="url(#paint62_linear)"/>
<path d="M518.757 301.458H578.294V168H518.757V301.458Z" fill="url(#paint63_linear)"/>
<path d="M520.323 213.532H482.721V255.925H520.323V213.532Z" fill="url(#paint64_linear)"/>
<path d="M518.757 255.925H578.294V213.532H518.757V234.729V255.925Z" fill="url(#paint65_linear)"/>
<path fill-rule="evenodd" clip-rule="evenodd" d="M508.243 200.391L428.777 171.564L417.575 202.746L408.299 228.543L397.113 259.725L476.579 288.551L508.243 200.391ZM432.02 179.257C432.346 179.371 432.63 179.58 432.837 179.856C433.044 180.132 433.164 180.464 433.183 180.809C433.201 181.154 433.117 181.497 432.941 181.794C432.765 182.091 432.504 182.328 432.193 182.477C431.881 182.625 431.533 182.677 431.192 182.627C430.851 182.576 430.532 182.425 430.277 182.193C430.022 181.961 429.841 181.657 429.758 181.322C429.675 180.987 429.694 180.634 429.811 180.309C429.887 180.094 430.004 179.897 430.156 179.727C430.308 179.558 430.492 179.42 430.697 179.323C430.903 179.225 431.125 179.169 431.352 179.157C431.579 179.146 431.806 179.18 432.02 179.257ZM404.492 255.925C404.172 255.808 403.893 255.599 403.692 255.324C403.49 255.049 403.374 254.72 403.359 254.379C403.344 254.038 403.43 253.7 403.606 253.407C403.782 253.115 404.041 252.882 404.35 252.737C404.658 252.593 405.003 252.543 405.34 252.594C405.677 252.646 405.991 252.796 406.243 253.026C406.494 253.256 406.672 253.556 406.754 253.888C406.835 254.219 406.817 254.568 406.701 254.889C406.624 255.102 406.506 255.298 406.353 255.466C406.201 255.634 406.016 255.77 405.811 255.866C405.606 255.962 405.384 256.017 405.158 256.027C404.931 256.037 404.705 256.002 404.492 255.925ZM407.124 248.593C406.804 248.476 406.525 248.267 406.324 247.992C406.122 247.717 406.006 247.388 405.991 247.046C405.976 246.705 406.062 246.367 406.238 246.075C406.415 245.783 406.673 245.55 406.982 245.405C407.291 245.26 407.635 245.21 407.972 245.262C408.309 245.313 408.623 245.464 408.875 245.694C409.126 245.924 409.304 246.224 409.386 246.555C409.468 246.887 409.449 247.235 409.333 247.556C409.166 247.976 408.84 248.313 408.427 248.495C408.014 248.677 407.546 248.69 407.124 248.53V248.593ZM409.772 241.26C409.45 241.147 409.169 240.941 408.964 240.668C408.759 240.394 408.639 240.066 408.621 239.725C408.602 239.383 408.685 239.044 408.859 238.75C409.033 238.456 409.29 238.22 409.598 238.072C409.905 237.925 410.25 237.872 410.588 237.921C410.925 237.97 411.241 238.118 411.495 238.347C411.748 238.575 411.928 238.874 412.012 239.206C412.096 239.537 412.08 239.886 411.966 240.208C411.804 240.63 411.483 240.97 411.072 241.156C410.661 241.341 410.194 241.356 409.772 241.197V241.26ZM412.404 233.928C412.084 233.812 411.805 233.605 411.603 233.33C411.4 233.056 411.283 232.728 411.266 232.388C411.25 232.047 411.334 231.709 411.509 231.416C411.683 231.124 411.941 230.889 412.248 230.743C412.555 230.596 412.899 230.545 413.236 230.594C413.573 230.643 413.888 230.791 414.141 231.019C414.394 231.247 414.573 231.545 414.658 231.876C414.742 232.206 414.726 232.554 414.613 232.876C414.461 233.31 414.143 233.666 413.729 233.867C413.315 234.067 412.839 234.094 412.404 233.944V233.928ZM415.036 226.58C414.824 226.504 414.629 226.387 414.461 226.236C414.294 226.084 414.159 225.901 414.063 225.697C413.966 225.492 413.912 225.271 413.901 225.045C413.891 224.82 413.925 224.594 414.002 224.382C414.116 224.059 414.323 223.777 414.597 223.573C414.871 223.368 415.199 223.25 415.541 223.233C415.882 223.215 416.22 223.3 416.513 223.476C416.806 223.652 417.041 223.911 417.186 224.221C417.332 224.531 417.382 224.877 417.331 225.215C417.28 225.554 417.13 225.869 416.9 226.122C416.67 226.375 416.369 226.553 416.038 226.635C415.706 226.716 415.357 226.697 415.036 226.58ZM417.669 219.248C417.348 219.131 417.07 218.922 416.868 218.647C416.666 218.372 416.55 218.043 416.535 217.701C416.52 217.36 416.606 217.022 416.782 216.73C416.959 216.438 417.218 216.205 417.526 216.06C417.835 215.915 418.18 215.865 418.516 215.917C418.853 215.968 419.167 216.119 419.419 216.349C419.671 216.579 419.849 216.879 419.93 217.21C420.012 217.542 419.994 217.89 419.878 218.211C419.713 218.634 419.388 218.974 418.974 219.156C418.56 219.339 418.09 219.349 417.669 219.185V219.248ZM420.301 211.915C419.981 211.799 419.702 211.59 419.5 211.314C419.298 211.039 419.183 210.71 419.167 210.369C419.152 210.028 419.238 209.69 419.415 209.398C419.591 209.106 419.85 208.872 420.159 208.728C420.467 208.583 420.812 208.533 421.149 208.584C421.485 208.636 421.8 208.786 422.051 209.016C422.303 209.247 422.481 209.546 422.562 209.878C422.644 210.21 422.626 210.558 422.51 210.879C422.342 211.299 422.017 211.636 421.604 211.818C421.191 212 420.723 212.012 420.301 211.852V211.915ZM422.933 204.583C422.503 204.427 422.152 204.106 421.958 203.691C421.765 203.275 421.743 202.8 421.899 202.369C422.055 201.938 422.375 201.587 422.789 201.392C423.204 201.198 423.678 201.177 424.108 201.333C424.321 201.41 424.517 201.529 424.684 201.682C424.851 201.835 424.987 202.02 425.083 202.225C425.179 202.431 425.233 202.653 425.244 202.88C425.254 203.107 425.219 203.333 425.142 203.547C425.065 203.76 424.947 203.956 424.794 204.124C424.641 204.291 424.457 204.427 424.252 204.523C424.047 204.62 423.825 204.674 423.598 204.685C423.372 204.695 423.146 204.66 422.933 204.583ZM425.581 197.251C425.261 197.134 424.982 196.925 424.78 196.65C424.578 196.375 424.463 196.046 424.447 195.704C424.432 195.363 424.518 195.025 424.695 194.733C424.871 194.441 425.13 194.208 425.439 194.063C425.747 193.918 426.092 193.868 426.429 193.92C426.765 193.971 427.08 194.122 427.331 194.352C427.583 194.582 427.761 194.882 427.842 195.213C427.924 195.545 427.906 195.893 427.79 196.214C427.619 196.632 427.293 196.966 426.881 197.148C426.469 197.329 426.003 197.344 425.581 197.188V197.251ZM428.213 189.918C427.893 189.802 427.614 189.593 427.412 189.317C427.211 189.042 427.095 188.713 427.08 188.372C427.064 188.031 427.15 187.693 427.327 187.401C427.503 187.109 427.762 186.875 428.071 186.731C428.379 186.586 428.724 186.536 429.061 186.587C429.398 186.639 429.712 186.789 429.963 187.019C430.215 187.25 430.393 187.549 430.475 187.881C430.556 188.213 430.538 188.561 430.422 188.882C430.248 189.297 429.922 189.629 429.511 189.81C429.1 189.991 428.636 190.007 428.213 189.856V189.918Z" fill="url(#paint66_linear)"/>
<path fill-rule="evenodd" clip-rule="evenodd" d="M481.436 203.971L392.381 199.402L390.532 235.828L388.966 265.989L387.148 302.431L476.187 307L481.436 203.971ZM397.912 206.451C398.291 206.452 398.661 206.566 398.974 206.779C399.288 206.992 399.53 207.295 399.67 207.648C399.811 208 399.842 208.387 399.761 208.758C399.68 209.129 399.49 209.467 399.215 209.728C398.941 209.99 398.594 210.163 398.221 210.225C397.847 210.287 397.463 210.236 397.119 210.078C396.774 209.919 396.485 209.661 396.289 209.337C396.092 209.012 395.997 208.636 396.016 208.257C396.022 208.014 396.076 207.774 396.175 207.551C396.273 207.329 396.414 207.128 396.591 206.961C396.767 206.793 396.974 206.662 397.201 206.574C397.427 206.487 397.669 206.445 397.912 206.451ZM393.352 295.947C392.969 295.952 392.593 295.843 392.273 295.632C391.953 295.42 391.703 295.118 391.557 294.763C391.41 294.408 391.374 294.017 391.452 293.641C391.53 293.265 391.719 292.921 391.995 292.654C392.27 292.387 392.62 292.209 392.997 292.144C393.375 292.078 393.764 292.128 394.113 292.287C394.462 292.445 394.755 292.705 394.955 293.033C395.155 293.361 395.251 293.742 395.233 294.125C395.233 294.611 395.042 295.078 394.702 295.424C394.362 295.771 393.9 295.97 393.415 295.978L393.352 295.947ZM393.791 287.374C393.408 287.38 393.032 287.27 392.712 287.059C392.391 286.848 392.142 286.545 391.996 286.19C391.849 285.835 391.813 285.444 391.891 285.068C391.969 284.692 392.158 284.348 392.434 284.081C392.709 283.814 393.059 283.637 393.436 283.571C393.814 283.506 394.202 283.555 394.551 283.714C394.901 283.873 395.194 284.133 395.394 284.461C395.593 284.788 395.69 285.169 395.671 285.553C395.669 285.798 395.619 286.04 395.523 286.266C395.428 286.492 395.289 286.697 395.114 286.869C394.94 287.041 394.733 287.177 394.506 287.269C394.279 287.361 394.036 287.407 393.791 287.405V287.374ZM394.23 278.801C393.85 278.804 393.479 278.692 393.163 278.481C392.848 278.27 392.603 277.968 392.46 277.616C392.317 277.263 392.283 276.876 392.363 276.504C392.442 276.132 392.631 275.793 392.905 275.53C393.179 275.267 393.525 275.092 393.9 275.028C394.274 274.965 394.658 275.015 395.004 275.173C395.349 275.331 395.639 275.589 395.836 275.914C396.033 276.239 396.129 276.616 396.11 276.996C396.108 277.24 396.058 277.482 395.962 277.707C395.866 277.932 395.727 278.136 395.552 278.307C395.377 278.477 395.17 278.612 394.943 278.702C394.716 278.792 394.474 278.837 394.23 278.833V278.801ZM394.653 270.228C394.272 270.227 393.899 270.111 393.585 269.894C393.271 269.678 393.029 269.371 392.891 269.015C392.754 268.658 392.727 268.269 392.813 267.896C392.9 267.524 393.097 267.187 393.378 266.929C393.659 266.67 394.011 266.503 394.389 266.448C394.766 266.394 395.151 266.454 395.494 266.623C395.836 266.791 396.12 267.059 396.308 267.391C396.496 267.723 396.58 268.105 396.549 268.486C396.528 268.972 396.318 269.43 395.963 269.762C395.609 270.094 395.138 270.273 394.653 270.26V270.228ZM395.092 261.656C394.612 261.612 394.169 261.382 393.856 261.016C393.543 260.649 393.385 260.175 393.415 259.693C393.419 259.449 393.472 259.208 393.569 258.985C393.667 258.762 393.809 258.56 393.985 258.392C394.162 258.224 394.37 258.093 394.597 258.006C394.825 257.919 395.068 257.879 395.311 257.888C395.799 257.928 396.251 258.16 396.569 258.534C396.886 258.908 397.042 259.392 397.003 259.882C396.987 260.374 396.777 260.841 396.418 261.179C396.06 261.517 395.583 261.7 395.092 261.687V261.656ZM395.53 253.083C395.042 253.043 394.59 252.811 394.273 252.437C393.955 252.063 393.799 251.578 393.838 251.089C393.842 250.845 393.895 250.604 393.993 250.381C394.09 250.158 394.232 249.956 394.408 249.788C394.585 249.62 394.793 249.489 395.02 249.402C395.248 249.315 395.491 249.275 395.734 249.283C396.237 249.31 396.708 249.537 397.045 249.912C397.381 250.287 397.555 250.781 397.528 251.285C397.501 251.789 397.275 252.262 396.901 252.599C396.526 252.936 396.033 253.11 395.53 253.083ZM395.969 244.51C395.466 244.485 394.994 244.261 394.656 243.887C394.318 243.513 394.142 243.02 394.167 242.516C394.192 242.012 394.416 241.539 394.789 241.201C395.162 240.862 395.654 240.686 396.157 240.711C396.406 240.723 396.65 240.785 396.875 240.891C397.101 240.998 397.303 241.149 397.47 241.334C397.637 241.519 397.767 241.735 397.85 241.971C397.934 242.206 397.971 242.455 397.959 242.705C397.946 242.954 397.885 243.199 397.778 243.425C397.672 243.65 397.522 243.853 397.337 244.021C397.152 244.188 396.936 244.318 396.702 244.402C396.467 244.486 396.218 244.523 395.969 244.51ZM396.408 235.938C396.028 235.94 395.657 235.829 395.341 235.617C395.025 235.406 394.78 235.105 394.638 234.752C394.495 234.4 394.461 234.013 394.54 233.641C394.62 233.269 394.809 232.929 395.083 232.666C395.357 232.403 395.703 232.228 396.077 232.165C396.452 232.101 396.836 232.152 397.181 232.31C397.527 232.467 397.817 232.726 398.014 233.05C398.211 233.375 398.307 233.752 398.288 234.132C398.288 234.377 398.239 234.62 398.144 234.846C398.049 235.072 397.91 235.277 397.734 235.448C397.559 235.619 397.351 235.753 397.124 235.843C396.896 235.932 396.652 235.975 396.408 235.969V235.938ZM396.846 227.365C396.467 227.368 396.095 227.256 395.78 227.045C395.464 226.833 395.219 226.532 395.076 226.18C394.934 225.827 394.9 225.44 394.979 225.068C395.058 224.696 395.247 224.357 395.521 224.094C395.795 223.83 396.142 223.656 396.516 223.592C396.89 223.529 397.275 223.579 397.62 223.737C397.965 223.895 398.255 224.153 398.453 224.478C398.65 224.803 398.745 225.179 398.726 225.559C398.727 225.805 398.678 226.047 398.583 226.273C398.488 226.499 398.348 226.704 398.173 226.875C397.998 227.046 397.79 227.181 397.562 227.27C397.334 227.36 397.091 227.403 396.846 227.396V227.365ZM397.285 218.792C396.906 218.795 396.534 218.683 396.218 218.472C395.903 218.261 395.658 217.959 395.515 217.607C395.372 217.255 395.338 216.867 395.418 216.495C395.497 216.123 395.686 215.784 395.96 215.521C396.234 215.258 396.581 215.083 396.955 215.019C397.329 214.956 397.714 215.006 398.059 215.164C398.404 215.322 398.694 215.58 398.891 215.905C399.089 216.23 399.184 216.607 399.165 216.987C399.163 217.231 399.113 217.473 399.017 217.698C398.921 217.923 398.782 218.127 398.607 218.298C398.432 218.469 398.225 218.603 397.999 218.693C397.772 218.783 397.529 218.828 397.285 218.824V218.792Z" fill="url(#paint67_linear)"/>
<g style="mix-blend-mode:multiply">
<path d="M469.685 215.872C458.279 214.977 454.441 215.872 443.05 215.621C437.426 215.495 408.848 212.48 407.688 215.464C407.688 215.322 407.688 215.071 407.516 215.055C407.344 215.04 407.171 215.055 406.78 215.197C406.388 215.338 406.294 216.767 406.952 216.767C430.359 216.531 446.387 219.907 469.779 218.07C470.719 218.007 470.657 215.95 469.685 215.872Z" fill="#D1D1D1"/>
</g>
<g style="mix-blend-mode:multiply">
<path d="M468.62 226.093C457.308 224.288 453.407 225.245 441.985 225.434C430.563 225.622 419.063 224.24 407.814 225.434C406.842 225.544 406.936 227.679 407.814 227.569C418.985 226.297 430.704 227.302 441.985 227.114C450.87 226.894 459.761 227.145 468.62 227.867C469.513 227.977 469.435 226.219 468.62 226.093Z" fill="#D1D1D1"/>
</g>
<g style="mix-blend-mode:multiply">
<path d="M466.912 236.11C445.635 231.918 429.748 233.645 408.174 234.917C407.422 234.917 407.469 236.581 408.174 236.613C430.109 237.633 444.805 234.242 466.473 238.544C467.743 238.795 467.915 236.314 466.912 236.11Z" fill="#D1D1D1"/>
</g>
<g style="mix-blend-mode:multiply">
<path d="M425.957 245.28C423.214 245.259 420.498 245.83 417.995 246.954C415.491 248.079 413.259 249.73 411.449 251.796C406.278 257.95 404.57 267.826 411.558 273.337C414.37 275.449 417.678 276.795 421.162 277.247C423.718 277.657 426.334 277.443 428.789 276.623C431.244 275.803 433.465 274.401 435.263 272.536C438.599 268.974 440.444 264.265 440.418 259.379C440.479 257.074 439.956 254.791 438.898 252.743C437.841 250.695 436.283 248.948 434.37 247.666C431.841 246.103 428.928 245.277 425.957 245.28ZM422.259 248.074C423.167 247.842 424.088 247.664 425.017 247.541C433.117 247.446 439.118 253.507 438.648 260.918C435.964 260.497 433.244 260.36 430.532 260.51C428.088 260.588 422.698 260.51 422.949 260.51C422.424 258.224 422.171 255.884 422.197 253.538C422.197 253.02 421.852 248.074 422.259 248.074ZM409.631 267.355C408.927 265.549 408.69 263.594 408.942 261.671C409.725 255.046 414.676 250.681 420.489 248.608C420.395 250.806 420.489 253.005 420.489 255.203C420.489 255.642 420.786 261.122 420.739 261.138C418.242 262.21 415.851 263.514 413.595 265.031C412.342 265.754 410.963 266.507 409.631 267.308V267.355ZM423.074 275.206C420.715 275.428 418.338 275.026 416.183 274.04C414.027 273.053 412.168 271.517 410.79 269.585C411.903 268.8 413 268.015 414.096 267.308C416.462 265.738 419.079 264.466 421.303 262.708C421.303 262.708 426.787 265.393 428.62 266.554C430.457 267.938 432.395 269.182 434.417 270.276C431.321 273.179 427.307 274.901 423.074 275.143V275.206ZM435.357 268.69C433.71 267.226 431.87 265.995 429.889 265.031C428.965 264.482 426.098 263.116 425.189 262.598C425.894 262.598 435.906 262.849 438.413 262.912C438.119 264.287 437.633 265.613 436.971 266.853C436.552 267.543 436.004 268.145 435.357 268.627V268.69Z" fill="#D1D1D1"/>
</g>
<g style="mix-blend-mode:multiply">
<path d="M465.361 253.193C460.974 253.193 464.672 252.989 460.269 252.926C456.164 252.926 451.793 252.11 447.735 252.926C447.328 253.005 447.249 253.821 447.657 253.947C451.652 255.156 456.133 254.904 460.285 255.093C464.703 255.281 464.703 255.281 465.533 255.093C466.364 254.904 466.129 253.177 465.361 253.193Z" fill="#D1D1D1"/>
</g>
<g style="mix-blend-mode:multiply">
<path d="M464.734 266.523C465.424 266.523 465.345 265.141 464.734 265.031C456.321 263.697 455.24 264.105 446.717 263.461C446.294 263.461 446.262 264.45 446.717 264.513C454.895 265.989 456.337 267.214 464.734 266.523Z" fill="#D1D1D1"/>
</g>
<g style="mix-blend-mode:multiply">
<path d="M445.729 274.562C454.597 274.452 455.96 275.881 464.75 275.159C465.502 275.159 465.58 273.447 464.86 273.29C456.336 271.437 454.378 272.207 445.682 272.348C444.695 272.364 444.758 274.578 445.729 274.562Z" fill="#D1D1D1"/>
</g>
<g style="mix-blend-mode:multiply">
<path d="M464.687 289.713C441.954 291.189 427.414 287.217 404.743 287.343C404.085 287.343 404.132 288.756 404.743 288.818C427.116 291.158 442.22 293.529 464.719 292.163C465.847 292.037 465.768 289.651 464.687 289.713Z" fill="#D1D1D1"/>
</g>
</g>
<defs>
<linearGradient id="paint0_linear" x1="331.089" y1="288.897" x2="331.089" y2="21.9813" gradientUnits="userSpaceOnUse">
<stop stop-color="#35D9FF"/>
<stop offset="1" stop-color="#1682B2"/>
</linearGradient>
<linearGradient id="paint1_linear" x1="331.073" y1="31.4018" x2="331.073" y2="21.9813" gradientUnits="userSpaceOnUse">
<stop stop-color="#1477A3"/>
<stop offset="1" stop-color="#29B4D8"/>
</linearGradient>
<linearGradient id="paint2_linear" x1="260.24" y1="37.6822" x2="260.24" y2="20.4112" gradientUnits="userSpaceOnUse">
<stop stop-color="#29B4D8"/>
<stop offset="1" stop-color="#1477A3"/>
</linearGradient>
<linearGradient id="paint3_linear" x1="2006.45" y1="435.465" x2="2006.45" y2="20.4112" gradientUnits="userSpaceOnUse">
<stop stop-color="#29B4D8"/>
<stop offset="1" stop-color="#1477A3"/>
</linearGradient>
<linearGradient id="paint4_linear" x1="1515.71" y1="435.465" x2="1515.71" y2="20.4112" gradientUnits="userSpaceOnUse">
<stop stop-color="#29B4D8"/>
<stop offset="1" stop-color="#1477A3"/>
</linearGradient>
<linearGradient id="paint5_linear" x1="4296.42" y1="2918.69" x2="4296.42" y2="2728.36" gradientUnits="userSpaceOnUse">
<stop stop-color="#29B4D8"/>
<stop offset="1" stop-color="#1477A3"/>
</linearGradient>
<linearGradient id="paint6_linear" x1="8884.4" y1="2918.69" x2="8884.4" y2="2728.36" gradientUnits="userSpaceOnUse">
<stop stop-color="#29B4D8"/>
<stop offset="1" stop-color="#1477A3"/>
</linearGradient>
<linearGradient id="paint7_linear" x1="2310.51" y1="20.4112" x2="2310.51" y2="20.4112" gradientUnits="userSpaceOnUse">
<stop stop-color="#29B4D8"/>
<stop offset="1" stop-color="#1477A3"/>
</linearGradient>
<linearGradient id="paint8_linear" x1="2804.04" y1="20.4112" x2="2804.04" y2="20.4112" gradientUnits="userSpaceOnUse">
<stop stop-color="#29B4D8"/>
<stop offset="1" stop-color="#1477A3"/>
</linearGradient>
<linearGradient id="paint9_linear" x1="331.073" y1="21.9813" x2="331.073" y2="0" gradientUnits="userSpaceOnUse">
<stop stop-color="#23A1C9"/>
<stop offset="1" stop-color="#32CCF0"/>
</linearGradient>
<linearGradient id="paint10_linear" x1="48202.2" y1="80063.7" x2="48202.2" y2="45206.1" gradientUnits="userSpaceOnUse">
<stop stop-color="#1477A3"/>
<stop offset="1" stop-color="#29B4D8"/>
</linearGradient>
<linearGradient id="paint11_linear" x1="358.555" y1="114.24" x2="358.555" y2="142.878" gradientUnits="userSpaceOnUse">
<stop stop-color="white"/>
<stop offset="1" stop-color="#E2E1E1"/>
</linearGradient>
<linearGradient id="paint12_linear" x1="8299.97" y1="7214.31" x2="8794.72" y2="7214.31" gradientUnits="userSpaceOnUse">
<stop stop-color="white"/>
<stop offset="1" stop-color="#E2E1E1"/>
</linearGradient>
<linearGradient id="paint13_linear" x1="9179.39" y1="5357.94" x2="8635.23" y2="5357.94" gradientUnits="userSpaceOnUse">
<stop stop-color="white"/>
<stop offset="1" stop-color="#E2E1E1"/>
</linearGradient>
<linearGradient id="paint14_linear" x1="237.13" y1="216.264" x2="313.044" y2="292.033" gradientUnits="userSpaceOnUse">
<stop stop-color="#FFE6B0"/>
<stop offset="1" stop-color="#D99C5D"/>
</linearGradient>
<linearGradient id="paint15_linear" x1="242.802" y1="223.204" x2="307.348" y2="287.614" gradientUnits="userSpaceOnUse">
<stop stop-color="#8F6132"/>
<stop offset="1" stop-color="#523213"/>
</linearGradient>
<linearGradient id="paint16_linear" x1="9403.27" y1="11298.3" x2="9956.27" y2="11849.8" gradientUnits="userSpaceOnUse">
<stop stop-color="#FFE6B0"/>
<stop offset="1" stop-color="#D99C5D"/>
</linearGradient>
<linearGradient id="paint17_linear" x1="6237.37" y1="7584.31" x2="6503.42" y2="7845.51" gradientUnits="userSpaceOnUse">
<stop stop-color="#8F6132"/>
<stop offset="1" stop-color="#523213"/>
</linearGradient>
<linearGradient id="paint18_linear" x1="185.427" y1="79.6821" x2="201.913" y2="96.1332" gradientUnits="userSpaceOnUse">
<stop stop-color="#F1F1F2"/>
<stop offset="1" stop-color="#D9E1EC"/>
</linearGradient>
<linearGradient id="paint19_linear" x1="133.911" y1="147.008" x2="255.216" y2="268.04" gradientUnits="userSpaceOnUse">
<stop stop-color="white"/>
<stop offset="1" stop-color="#D9E1EC"/>
</linearGradient>
<linearGradient id="paint20_linear" x1="185.819" y1="87.1401" x2="201.519" y2="102.808" gradientUnits="userSpaceOnUse">
<stop stop-color="#2172EB"/>
<stop offset="1" stop-color="#063378"/>
</linearGradient>
<linearGradient id="paint21_linear" x1="7336.39" y1="7322.9" x2="9553.47" y2="10026.9" gradientUnits="userSpaceOnUse">
<stop stop-color="#2172EB"/>
<stop offset="1" stop-color="#063378"/>
</linearGradient>
<linearGradient id="paint22_linear" x1="65.4999" y1="165" x2="167.538" y2="182.784" gradientUnits="userSpaceOnUse">
<stop stop-color="#ECFFE9"/>
<stop offset="1" stop-color="#248914"/>
</linearGradient>
<linearGradient id="paint23_linear" x1="1530.67" y1="410.186" x2="1547.33" y2="476.667" gradientUnits="userSpaceOnUse">
<stop stop-color="#6DB462"/>
<stop offset="1" stop-color="#248914"/>
</linearGradient>
<linearGradient id="paint24_linear" x1="3856.98" y1="1199.05" x2="3872.56" y2="1270.5" gradientUnits="userSpaceOnUse">
<stop stop-color="#6DB462"/>
<stop offset="1" stop-color="#77ECFE"/>
</linearGradient>
<linearGradient id="paint25_linear" x1="17359.9" y1="28525.4" x2="19390.5" y2="28525.4" gradientUnits="userSpaceOnUse">
<stop stop-color="#D43535"/>
<stop offset="1" stop-color="#871B16"/>
</linearGradient>
<linearGradient id="paint26_linear" x1="323.569" y1="222.294" x2="361.062" y2="259.708" gradientUnits="userSpaceOnUse">
<stop stop-color="#1C3759"/>
<stop offset="1" stop-color="#111927"/>
</linearGradient>
<linearGradient id="paint27_linear" x1="17359.9" y1="20227.2" x2="19390.5" y2="20227.2" gradientUnits="userSpaceOnUse">
<stop stop-color="white"/>
<stop offset="1" stop-color="#D9E1EC"/>
</linearGradient>
<linearGradient id="paint28_linear" x1="341.116" y1="202.714" x2="364.307" y2="225.871" gradientUnits="userSpaceOnUse">
<stop stop-color="white"/>
<stop offset="1" stop-color="#DFE3E8"/>
</linearGradient>
<linearGradient id="paint29_linear" x1="79.2783" y1="237.869" x2="134.231" y2="292.706" gradientUnits="userSpaceOnUse">
<stop stop-color="#78532C"/>
<stop offset="1" stop-color="#80572D"/>
</linearGradient>
<linearGradient id="paint30_linear" x1="13.0825" y1="227.271" x2="89.2318" y2="303.259" gradientUnits="userSpaceOnUse">
<stop stop-color="#916537"/>
<stop offset="1" stop-color="#875C30"/>
</linearGradient>
<linearGradient id="paint31_linear" x1="22.8278" y1="217.992" x2="67.3241" y2="262.395" gradientUnits="userSpaceOnUse">
<stop stop-color="#D3995E"/>
<stop offset="1" stop-color="#AD7742"/>
</linearGradient>
<linearGradient id="paint32_linear" x1="27390.7" y1="6377.29" x2="26555.8" y2="6905.1" gradientUnits="userSpaceOnUse">
<stop stop-color="#D3995E"/>
<stop offset="1" stop-color="#AD7742"/>
</linearGradient>
<linearGradient id="paint33_linear" x1="639.006" y1="198.287" x2="555.851" y2="245.207" gradientUnits="userSpaceOnUse">
<stop stop-color="#BF8E5D"/>
<stop offset="1" stop-color="#AB7D4F"/>
</linearGradient>
<linearGradient id="paint34_linear" x1="61468.6" y1="22121.6" x2="57028.7" y2="25016.8" gradientUnits="userSpaceOnUse">
<stop stop-color="#BF8E5D"/>
<stop offset="1" stop-color="#AB7D4F"/>
</linearGradient>
<linearGradient id="paint35_linear" x1="651.932" y1="295.177" x2="570.46" y2="295.177" gradientUnits="userSpaceOnUse">
<stop stop-color="#D6B379"/>
<stop offset="1" stop-color="#BD814D"/>
</linearGradient>
<linearGradient id="paint36_linear" x1="61041.7" y1="1361.27" x2="56805.2" y2="1361.27" gradientUnits="userSpaceOnUse">
<stop stop-color="#D6B379"/>
<stop offset="1" stop-color="#BD814D"/>
</linearGradient>
<linearGradient id="paint37_linear" x1="61041.7" y1="1342.43" x2="56805.2" y2="1342.43" gradientUnits="userSpaceOnUse">
<stop stop-color="#D6B379"/>
<stop offset="1" stop-color="#BD814D"/>
</linearGradient>
<linearGradient id="paint38_linear" x1="61041.7" y1="1323.59" x2="56805.2" y2="1323.59" gradientUnits="userSpaceOnUse">
<stop stop-color="#D6B379"/>
<stop offset="1" stop-color="#BD814D"/>
</linearGradient>
<linearGradient id="paint39_linear" x1="61041.7" y1="1304.75" x2="56805.2" y2="1304.75" gradientUnits="userSpaceOnUse">
<stop stop-color="#D6B379"/>
<stop offset="1" stop-color="#BD814D"/>
</linearGradient>
<linearGradient id="paint40_linear" x1="61041.7" y1="1285.9" x2="56805.2" y2="1285.9" gradientUnits="userSpaceOnUse">
<stop stop-color="#D6B379"/>
<stop offset="1" stop-color="#BD814D"/>
</linearGradient>
<linearGradient id="paint41_linear" x1="61041.7" y1="1267.06" x2="56805.2" y2="1267.06" gradientUnits="userSpaceOnUse">
<stop stop-color="#D6B379"/>
<stop offset="1" stop-color="#BD814D"/>
</linearGradient>
<linearGradient id="paint42_linear" x1="61041.7" y1="1248.23" x2="56805.2" y2="1248.23" gradientUnits="userSpaceOnUse">
<stop stop-color="#D6B379"/>
<stop offset="1" stop-color="#BD814D"/>
</linearGradient>
<linearGradient id="paint43_linear" x1="61041.7" y1="1229.39" x2="56805.2" y2="1229.39" gradientUnits="userSpaceOnUse">
<stop stop-color="#D6B379"/>
<stop offset="1" stop-color="#BD814D"/>
</linearGradient>
<linearGradient id="paint44_linear" x1="61041.7" y1="1210.55" x2="56805.2" y2="1210.55" gradientUnits="userSpaceOnUse">
<stop stop-color="#D6B379"/>
<stop offset="1" stop-color="#BD814D"/>
</linearGradient>
<linearGradient id="paint45_linear" x1="61041.7" y1="1191.7" x2="56805.2" y2="1191.7" gradientUnits="userSpaceOnUse">
<stop stop-color="#D6B379"/>
<stop offset="1" stop-color="#BD814D"/>
</linearGradient>
<linearGradient id="paint46_linear" x1="677" y1="266.131" x2="595.528" y2="266.131" gradientUnits="userSpaceOnUse">
<stop stop-color="#E0AA72"/>
<stop offset="1" stop-color="#CC9863"/>
</linearGradient>
<linearGradient id="paint47_linear" x1="677" y1="295.177" x2="595.528" y2="295.177" gradientUnits="userSpaceOnUse">
<stop stop-color="#F2CF8D"/>
<stop offset="1" stop-color="#D99C5D"/>
</linearGradient>
<linearGradient id="paint48_linear" x1="62320.3" y1="1361.27" x2="58083.8" y2="1361.27" gradientUnits="userSpaceOnUse">
<stop stop-color="#F2CF8D"/>
<stop offset="1" stop-color="#D99C5D"/>
</linearGradient>
<linearGradient id="paint49_linear" x1="62320.3" y1="1342.43" x2="58083.8" y2="1342.43" gradientUnits="userSpaceOnUse">
<stop stop-color="#F2CF8D"/>
<stop offset="1" stop-color="#D99C5D"/>
</linearGradient>
<linearGradient id="paint50_linear" x1="62320.3" y1="1323.59" x2="58083.8" y2="1323.59" gradientUnits="userSpaceOnUse">
<stop stop-color="#F2CF8D"/>
<stop offset="1" stop-color="#D99C5D"/>
</linearGradient>
<linearGradient id="paint51_linear" x1="62320.3" y1="1304.75" x2="58083.8" y2="1304.75" gradientUnits="userSpaceOnUse">
<stop stop-color="#F2CF8D"/>
<stop offset="1" stop-color="#D99C5D"/>
</linearGradient>
<linearGradient id="paint52_linear" x1="62320.3" y1="1285.9" x2="58083.8" y2="1285.9" gradientUnits="userSpaceOnUse">
<stop stop-color="#F2CF8D"/>
<stop offset="1" stop-color="#D99C5D"/>
</linearGradient>
<linearGradient id="paint53_linear" x1="62320.3" y1="1267.06" x2="58083.8" y2="1267.06" gradientUnits="userSpaceOnUse">
<stop stop-color="#F2CF8D"/>
<stop offset="1" stop-color="#D99C5D"/>
</linearGradient>
<linearGradient id="paint54_linear" x1="62320.3" y1="1248.23" x2="58083.8" y2="1248.23" gradientUnits="userSpaceOnUse">
<stop stop-color="#F2CF8D"/>
<stop offset="1" stop-color="#D99C5D"/>
</linearGradient>
<linearGradient id="paint55_linear" x1="62320.3" y1="1229.39" x2="58083.8" y2="1229.39" gradientUnits="userSpaceOnUse">
<stop stop-color="#F2CF8D"/>
<stop offset="1" stop-color="#D99C5D"/>
</linearGradient>
<linearGradient id="paint56_linear" x1="62320.3" y1="1210.55" x2="58083.8" y2="1210.55" gradientUnits="userSpaceOnUse">
<stop stop-color="#F2CF8D"/>
<stop offset="1" stop-color="#D99C5D"/>
</linearGradient>
<linearGradient id="paint57_linear" x1="62320.3" y1="1191.7" x2="58083.8" y2="1191.7" gradientUnits="userSpaceOnUse">
<stop stop-color="#F2CF8D"/>
<stop offset="1" stop-color="#D99C5D"/>
</linearGradient>
<linearGradient id="paint58_linear" x1="61538" y1="6924.58" x2="57396.3" y2="6924.58" gradientUnits="userSpaceOnUse">
<stop stop-color="#F2CF8D"/>
<stop offset="1" stop-color="#D99C5D"/>
</linearGradient>
<linearGradient id="paint59_linear" x1="59756.7" y1="9114.73" x2="55834.3" y2="9114.73" gradientUnits="userSpaceOnUse">
<stop stop-color="#F2CF8D"/>
<stop offset="1" stop-color="#D99C5D"/>
</linearGradient>
<linearGradient id="paint60_linear" x1="481.154" y1="216.673" x2="557.926" y2="216.673" gradientUnits="userSpaceOnUse">
<stop stop-color="#FFFAF1"/>
<stop offset="1" stop-color="#BDBBB8"/>
</linearGradient>
<linearGradient id="paint61_linear" x1="516.093" y1="131.621" x2="565.3" y2="180.723" gradientUnits="userSpaceOnUse">
<stop stop-color="#FFFAF2"/>
<stop offset="0.140196" stop-color="#FDF8F1"/>
<stop offset="1" stop-color="#EEEDEB"/>
</linearGradient>
<linearGradient id="paint62_linear" x1="562.626" y1="138.168" x2="503.089" y2="138.168" gradientUnits="userSpaceOnUse">
<stop stop-color="#E6E6E6"/>
<stop offset="1" stop-color="#E1E1E1"/>
<stop offset="1" stop-color="white"/>
</linearGradient>
<linearGradient id="paint63_linear" x1="61762.5" y1="37102.4" x2="67870" y2="39827.1" gradientUnits="userSpaceOnUse">
<stop stop-color="#FFF9EE"/>
<stop offset="1" stop-color="#B2760C"/>
</linearGradient>
<linearGradient id="paint64_linear" x1="482.721" y1="234.729" x2="520.323" y2="234.729" gradientUnits="userSpaceOnUse">
<stop stop-color="#0C7128"/>
<stop offset="1" stop-color="#05571C"/>
</linearGradient>
<linearGradient id="paint65_linear" x1="62625.7" y1="12560.3" x2="63927.7" y2="14388.8" gradientUnits="userSpaceOnUse">
<stop stop-color="#2B9348"/>
<stop offset="1" stop-color="#D9E1EC"/>
</linearGradient>
<linearGradient id="paint66_linear" x1="414.951" y1="182.606" x2="490.576" y2="277.378" gradientUnits="userSpaceOnUse">
<stop stop-color="#D1D1D1"/>
<stop offset="1" stop-color="#B3B3B3"/>
</linearGradient>
<linearGradient id="paint67_linear" x1="32499.8" y1="31269.5" x2="39007.5" y2="36972.2" gradientUnits="userSpaceOnUse">
<stop stop-color="white"/>
<stop offset="1" stop-color="#DFE3E8"/>
</linearGradient>
<clipPath id="clip0">
<rect width="677" height="307" fill="white"/>
</clipPath>
</defs>
</svg>
