<svg width="1440" height="91" viewBox="0 0 1440 91" fill="none" xmlns="http://www.w3.org/2000/svg">
<path d="M0 50.981C134.4 50.981 134.4 0 351.36 0C568.319 0 585.599 50.981 719.999 50.981C854.399 50.981 944.64 0 1079.04 0C1213.44 0 1305.6 50.981 1440 50.981V90.5H0V50.981Z" fill="#F6F6F6"/>
<path d="M351.36 44.3375C134.4 44.3375 134.4 0 0 0V90.5H1440V0C1305.6 0 1213.44 44.3375 1079.04 44.3375C944.64 44.3375 854.399 5.91288e-06 719.999 0C585.599 -5.91288e-06 568.319 44.3375 351.36 44.3375Z" fill="#FBFBFB"/>
</svg>
