<svg width="44" height="49" viewBox="0 0 44 49" fill="none" xmlns="http://www.w3.org/2000/svg">
<path d="M42.5684 13.6543C38.1791 3.24936 27.0072 -2.17489 16.131 0.819076C5.67059 3.69291 -1.15824 13.9408 0.163174 24.7708C0.745334 29.502 2.63042 33.6418 5.87388 37.1163C10.18 41.7366 15.5303 44.0929 21.8417 44.2408C22.1282 44.25 22.2298 44.3147 22.2206 44.6197C22.2021 45.5252 22.2113 46.4401 22.2113 47.3456C22.2113 47.6229 22.2206 47.8908 22.5163 48.011C22.8027 48.1403 23.0799 48.1034 23.3387 47.9093C25.5102 46.2275 27.6725 44.555 29.8348 42.8732C30.1675 42.6144 30.1583 42.097 29.8256 41.8382C27.6633 40.1564 25.4917 38.4746 23.3294 36.8021C23.0707 36.608 22.7842 36.5803 22.4978 36.7097C22.2021 36.839 22.2021 37.107 22.2021 37.375C22.2021 38.5116 22.1928 39.6574 22.2113 40.794C22.2113 41.1082 22.1466 41.2099 21.814 41.2006C20.6035 41.1729 19.3929 41.0528 18.2009 40.794C7.74049 38.5024 1.25357 28.4486 3.4898 18.0159C5.56894 8.28551 15.1607 1.65997 24.9558 3.2586C31.2671 4.29355 35.9799 7.68486 39.02 13.3124C40.4985 16.0476 41.3579 18.9584 40.7388 22.128C39.8794 26.5542 37.3567 29.6868 33.1522 31.2669C28.8923 32.8656 24.9003 32.1356 21.3242 29.2895C21.2965 29.0769 21.4351 29.1508 21.5368 29.1601C22.276 29.197 23.0153 29.1878 23.7453 29.04C28.1992 28.1529 31.0084 24.281 30.4909 19.7531C29.955 15.1236 25.3069 11.7507 20.7513 12.684C16.6669 13.5157 13.9502 16.8423 13.9502 21.0283C13.9502 25.0388 13.9502 29.04 13.9502 33.0411C13.9502 33.7434 14.135 34.0114 14.8096 34.2424C15.4657 34.4642 16.0755 34.3626 16.6485 33.9745C16.8887 33.8081 17.0088 33.6141 16.9996 33.2906C16.9719 32.3943 16.9904 31.5072 16.9904 30.6109C16.9904 30.1673 16.9904 29.7145 16.9904 29.1786C17.2306 29.4558 17.3877 29.6591 17.5633 29.8531C20.3724 33.0596 23.9024 34.9078 28.1438 35.0556C34.4921 35.2774 39.2972 32.5237 42.2912 26.9146C44.5921 22.5992 44.4535 18.1175 42.5684 13.6543ZM16.7409 20.862C16.7409 17.9697 19.1065 15.6133 21.9895 15.6041C24.9003 15.5948 27.2752 17.9697 27.2659 20.8805C27.2567 23.7728 24.9003 26.1384 22.0173 26.1384C19.1065 26.1476 16.7316 23.782 16.7409 20.862Z" fill="white"/>
</svg>
